<svg width="283" height="139" viewBox="0 0 283 139" fill="none" xmlns="http://www.w3.org/2000/svg">
<g clip-path="url(#clip0_1879_2139)">
<path d="M229.208 81.648C227.947 84.1524 224.476 85.3168 217.531 87.6406C210.827 89.8912 207.471 91.0202 205.28 89.7381C204.363 89.1875 203.607 88.4047 203.088 87.4688C201.799 85.1568 202.667 81.4569 204.4 74.0656C206.134 66.6744 207.002 62.9745 209.184 61.4766C210.088 60.858 211.111 60.495 212.155 60.4228C214.689 60.2444 217.193 62.7475 222.201 67.7453C227.384 72.9176 229.975 75.5038 229.997 78.3048C230.002 79.4656 229.733 80.6113 229.212 81.649L229.208 81.648Z" stroke="url(#paint0_linear_1879_2139)" stroke-opacity="0.8" stroke-width="4" stroke-linejoin="round"/>
<path d="M258.796 80.1261C258.335 82.117 257.841 84.2343 257.315 86.478C252.869 105.434 250.645 114.917 243.376 119.424C236.107 123.932 226.629 121.709 207.668 117.262C188.712 112.816 179.23 110.592 174.723 103.323C170.215 96.0534 172.438 86.5751 176.885 67.6144C181.331 48.6578 183.554 39.1754 190.824 34.6679C198.093 30.1605 207.571 32.3834 226.531 36.8302C228.775 37.3564 230.891 37.8557 232.879 38.3279" stroke="url(#paint1_linear_1879_2139)" stroke-opacity="0.8" stroke-width="4" stroke-linecap="round"/>
<path d="M257.156 39.5452L257.556 42.7519C258.079 46.9567 258.341 49.0591 259.42 50.7993C260.503 52.5449 262.269 53.714 265.803 56.0523L268.497 57.8364L265.291 58.2366C261.086 58.76 258.984 59.0217 257.243 60.1008C255.498 61.1831 254.329 62.9499 251.99 66.4835L250.206 69.178L249.806 65.9712C249.283 61.7665 249.021 59.6641 247.942 57.9238C246.86 56.1783 245.093 55.0092 241.559 52.6709L238.865 50.8867L242.072 50.4865C246.276 49.9631 248.379 49.7014 250.119 48.6224C251.864 47.54 253.034 45.7732 255.372 42.2396L257.156 39.5452Z" stroke="url(#paint2_linear_1879_2139)" stroke-opacity="0.8" stroke-width="4" stroke-linejoin="round"/>
</g>
<g clip-path="url(#clip1_1879_2139)">
<path d="M107.028 73.6367C107.053 71.6842 106.801 69.689 106.235 67.7144L93.577 23.5066C92.0849 18.2957 88.5839 13.8909 83.8442 11.2613C79.1045 8.63168 73.5144 7.99266 68.3035 9.48478L24.0967 22.1435C18.8859 23.6356 14.4812 27.1366 11.8516 31.8764C9.22209 36.6162 8.58308 42.2065 10.0752 47.4174L22.832 91.9691C24.3972 97.0944 27.9127 101.4 32.6215 103.958C37.3302 106.517 42.8554 107.123 48.007 105.647L92.2139 92.9884L92.7857 92.814M107.028 73.6367L106.449 73.2496L90.1508 62.1C88.9142 61.2543 87.5068 60.6909 86.0283 60.4496C84.5498 60.2083 83.0363 60.295 81.595 60.7037C80.1537 61.1123 78.8199 61.8329 77.6881 62.8143C76.5562 63.7958 75.654 65.0141 75.0453 66.383L70.8035 75.9205L70.1195 77.5035M107.028 73.6367C106.966 77.9237 105.556 82.0779 103.001 85.5204C100.445 88.9629 96.8714 91.5145 92.7857 92.814M70.1195 77.5035L92.1798 92.4241L92.7857 92.814M70.1195 77.5035L48.8497 63.1165C47.6125 62.28 46.2071 61.7249 44.7322 61.4903C43.2574 61.2556 41.7491 61.347 40.3134 61.7581C38.8777 62.1692 37.5496 62.89 36.4225 63.8697C35.2955 64.8495 34.3968 66.0644 33.7899 67.4289L23.4251 90.7363L22.8384 91.9726" stroke="url(#paint3_linear_1879_2139)" stroke-opacity="0.8" stroke-width="4" stroke-linecap="round" stroke-linejoin="round"/>
<path d="M71.099 45.4035C75.1681 44.2383 77.5222 39.995 76.3571 35.9258C75.1919 31.8565 70.9487 29.5024 66.8795 30.6676C62.8104 31.8328 60.4563 36.0761 61.6215 40.1453C62.7866 44.2145 67.0299 46.5687 71.099 45.4035Z" fill="url(#paint4_linear_1879_2139)" fill-opacity="0.8"/>
</g>
<defs>
<linearGradient id="paint0_linear_1879_2139" x1="220.576" y1="62.2287" x2="213.625" y2="91.8626" gradientUnits="userSpaceOnUse">
<stop stop-color="#0066FF"/>
<stop offset="1" stop-color="#F15EC9"/>
</linearGradient>
<linearGradient id="paint1_linear_1879_2139" x1="226.531" y1="36.8302" x2="207.668" y2="117.262" gradientUnits="userSpaceOnUse">
<stop stop-color="#0066FF"/>
<stop offset="1" stop-color="#F15EC9"/>
</linearGradient>
<linearGradient id="paint2_linear_1879_2139" x1="257.156" y1="39.5452" x2="250.206" y2="69.1779" gradientUnits="userSpaceOnUse">
<stop stop-color="#0066FF"/>
<stop offset="1" stop-color="#F15EC9"/>
</linearGradient>
<linearGradient id="paint3_linear_1879_2139" x1="46.2001" y1="15.8141" x2="70.1114" y2="99.3174" gradientUnits="userSpaceOnUse">
<stop stop-color="#0066FF"/>
<stop offset="1" stop-color="#F15EC9"/>
</linearGradient>
<linearGradient id="paint4_linear_1879_2139" x1="66.8795" y1="30.6676" x2="71.0992" y2="45.4034" gradientUnits="userSpaceOnUse">
<stop stop-color="#0066FF"/>
<stop offset="1" stop-color="#F15EC9"/>
</linearGradient>
<clipPath id="clip0_1879_2139">
<rect width="104.353" height="104.355" fill="white" transform="matrix(0.973582 0.228338 -0.228329 0.973584 180.828 12.7109)"/>
</clipPath>
<clipPath id="clip1_1879_2139">
<rect width="93.0003" height="92.8586" rx="27" transform="matrix(0.961362 -0.275287 0.275276 0.961365 0 25.6016)" fill="white"/>
</clipPath>
</defs>
</svg>
